<?xml version="1.0" standalone="no"?>
<!DOCTYPE svg PUBLIC "-//W3C//DTD SVG 20010904//EN"
        "http://www.w3.org/TR/2001/REC-SVG-20010904/DTD/svg10.dtd">
<svg version="1.0" xmlns="http://www.w3.org/2000/svg"
     width="128.000000pt" height="128.000000pt" viewBox="0 0 128.000000 128.000000"
     preserveAspectRatio="xMidYMid meet">

    <g transform="translate(0.000000,128.000000) scale(0.100000,-0.100000)"
       fill="#FFFFFF" stroke="none">
        <path d="M522 1271 c-9 -5 -12 -24 -10 -52 l3 -44 125 0 125 0 3 46 3 46 -38
7 c-55 9 -196 7 -211 -3z m218 -46 l0 -25 -100 0 -100 0 0 25 0 25 100 0 100
0 0 -25z"/>
        <path d="M14 1257 c-2 -7 -3 -67 -2 -133 l3 -119 47 -3 47 -3 3 83 3 83 83 3
83 3 -3 47 -3 47 -128 3 c-99 2 -129 0 -133 -11z m246 -42 c0 -25 -1 -25 -85
-25 l-85 0 0 -85 c0 -84 0 -85 -25 -85 l-25 0 0 110 0 110 110 0 110 0 0 -25z"/>
        <path d="M1007 1264 c-4 -4 -7 -27 -7 -50 l0 -43 83 -3 82 -3 3 -83 3 -83 47
3 47 3 0 130 0 130 -126 3 c-69 1 -128 -1 -132 -4z m233 -134 l0 -110 -25 0
c-25 0 -25 1 -25 85 l0 85 -85 0 c-84 0 -85 0 -85 25 l0 25 110 0 110 0 0
-110z"/>
        <path d="M327 853 c-4 -3 -7 -32 -7 -64 0 -62 13 -79 59 -79 19 0 21 -7 23
-127 l3 -128 69 -3 c49 -2 72 1 77 10 5 7 9 66 9 131 0 112 1 117 21 117 11 0
30 5 41 11 14 8 23 8 31 0 6 -6 30 -11 54 -11 24 0 43 -4 43 -10 0 -5 -13 -10
-29 -10 -21 0 -30 -6 -34 -21 -3 -11 -15 -23 -27 -26 -19 -5 -21 -11 -18 -97
l3 -91 154 -3 c104 -2 158 1 167 9 14 12 19 84 8 113 -4 12 -20 16 -55 16 -27
0 -49 5 -49 10 0 6 7 10 16 10 9 0 34 17 55 39 38 38 39 41 39 109 0 109 11
102 -169 102 -100 0 -161 -4 -168 -11 -8 -8 -13 -8 -17 0 -8 12 -288 16 -299
4z m283 -63 l0 -40 -40 0 -40 0 0 -135 0 -135 -55 0 -55 0 0 135 0 135 -40 0
-40 0 0 40 0 40 135 0 135 0 0 -40z m340 -30 c0 -63 -2 -70 -20 -70 -13 0 -20
-7 -20 -20 0 -16 -7 -20 -35 -20 -31 0 -35 -3 -35 -25 0 -22 -4 -25 -35 -25
-24 0 -35 -5 -35 -15 0 -12 17 -15 90 -15 l90 0 0 -45 0 -45 -145 0 -145 0 0
70 c0 68 1 70 25 70 20 0 25 5 25 25 0 22 4 25 35 25 28 0 35 4 35 20 0 16 7
20 30 20 23 0 30 4 30 20 0 19 -7 20 -90 20 l-90 0 0 40 0 40 145 0 145 0 0
-70z"/>
        <path d="M15 757 c-3 -7 -4 -65 -3 -128 l3 -114 45 0 45 0 0 125 0 125 -43 3
c-29 2 -44 -1 -47 -11z m75 -117 l0 -100 -25 0 -25 0 0 100 0 100 25 0 25 0 0
-100z"/>
        <path d="M1175 757 c-3 -7 -4 -65 -3 -128 l3 -114 45 0 45 0 0 125 0 125 -43
3 c-29 2 -44 -1 -47 -11z m65 -117 l0 -100 -25 0 -25 0 0 100 0 100 25 0 25 0
0 -100z"/>
        <path d="M14 267 c-2 -7 -3 -67 -2 -133 l3 -119 130 0 130 0 3 47 3 47 -83 3
-83 3 -3 83 -3 82 -45 0 c-27 0 -47 -5 -50 -13z m76 -92 l0 -85 85 0 c84 0 85
0 85 -25 l0 -25 -110 0 -110 0 0 110 0 110 25 0 c25 0 25 -1 25 -85z"/>
        <path d="M1168 198 l-3 -83 -83 -3 -83 -3 3 -47 3 -47 130 0 130 0 0 130 0
130 -47 3 -47 3 -3 -83z m72 -48 l0 -110 -110 0 -110 0 0 25 c0 25 1 25 85 25
l85 0 0 85 c0 84 0 85 25 85 l25 0 0 -110z"/>
        <path d="M517 104 c-14 -15 -7 -92 9 -98 20 -8 158 -8 207 0 l38 7 -3 46 -3
46 -121 3 c-66 1 -123 -1 -127 -4z m223 -49 l0 -25 -100 0 -100 0 0 25 0 25
100 0 100 0 0 -25z"/>
    </g>
</svg>